<?xml version="1.0" encoding="UTF-8" standalone="no"?>
<svg
   id="Warstwa_1"
   viewBox="0 0 430 430"
   version="1.1"
   sodipodi:docname="icon.svg"
   xml:space="preserve"
   inkscape:version="1.3.2 (091e20e, 2023-11-25)"
   xmlns:inkscape="http://www.inkscape.org/namespaces/inkscape"
   xmlns:sodipodi="http://sodipodi.sourceforge.net/DTD/sodipodi-0.dtd"
   xmlns="http://www.w3.org/2000/svg"
   xmlns:svg="http://www.w3.org/2000/svg"><sodipodi:namedview
   id="namedview1"
   pagecolor="#ffffff"
   bordercolor="#000000"
   borderopacity="0.25"
   inkscape:showpageshadow="2"
   inkscape:pageopacity="0.0"
   inkscape:pagecheckerboard="0"
   inkscape:deskcolor="#d1d1d1"
   inkscape:zoom="1.6"
   inkscape:cx="215"
   inkscape:cy="214.6875"
   inkscape:window-width="1392"
   inkscape:window-height="1212"
   inkscape:window-x="2240"
   inkscape:window-y="472"
   inkscape:window-maximized="0"
   inkscape:current-layer="Warstwa_1" />
  <defs
   id="defs2">
    <style
   id="style1">.cls-1{fill:#fff;}.cls-2{fill:url(#Gradient_bez_nazwy_6);}</style>
    <radialGradient
   id="Gradient_bez_nazwy_6"
   cx="419.03"
   cy="39.43"
   fx="419.03"
   fy="39.43"
   r="459.36"
   gradientUnits="userSpaceOnUse"
   gradientTransform="matrix(1.5189855,0,0,1.5189855,-111.32844,-111.50658)">
      <stop
   offset="0"
   stop-color="#339ebf"
   id="stop1" />
      <stop
   offset="1"
   stop-color="#1e90ff"
   id="stop2" />
    </radialGradient>
  </defs>
  <path
   class="cls-2"
   d="M 372.27096,0.27556601 H 58.235913 C 26.382788,0.27556601 0.46889662,26.189457 0.46889662,58.042581 V 372.09284 c 0,31.85312 25.91389138,57.767 57.76701638,57.767 H 372.27096 c 31.85312,0 57.7822,-25.91388 57.7822,-57.767 V 58.042581 c 0,-31.853124 -25.92908,-57.76701499 -57.7822,-57.76701499 z"
   id="path2"
   style="fill:url(#Gradient_bez_nazwy_6);stroke-width:1.51898" /><path
   d="m 353.12108,258.61719 h -7.26951 v -49.11478 c 0,-5.77019 -2.31718,-11.3132 -6.40627,-15.4023 l -45.38915,-45.38915 c -4.0891,-4.0891 -9.63211,-6.40627 -15.40232,-6.40627 H 258.61718 V 120.4961 c 0,-12.04016 -9.76843,-21.8086 -21.8086,-21.8086 h -116.3125 c -12.04015,0 -21.808579,9.76844 -21.808579,21.8086 v 21.80859 H 73.244143 c -1.999121,0 -3.634765,1.63564 -3.634765,3.63476 v 7.26953 c 0,1.99913 1.635644,3.63477 3.634765,3.63477 H 196.82617 c 1.99913,0 3.63477,1.63564 3.63477,3.63476 v 7.26954 c 0,1.99912 -1.63564,3.63476 -3.63477,3.63476 H 87.783206 c -1.999121,0 -3.634766,1.63564 -3.634766,3.63477 v 7.26953 c 0,1.99912 1.635645,3.63476 3.634766,3.63476 h 94.503904 c 1.99913,0 3.63477,1.63565 3.63477,3.63477 v 7.26953 c 0,1.99913 -1.63564,3.63477 -3.63477,3.63477 H 73.244143 c -1.999121,0 -3.634765,1.63564 -3.634765,3.63476 v 7.26953 c 0,1.99913 1.635644,3.63477 3.634765,3.63477 h 94.503907 c 1.99913,0 3.63477,1.63564 3.63477,3.63476 v 7.26953 c 0,1.99913 -1.63564,3.63477 -3.63477,3.63477 H 98.687501 v 58.15625 c 0,24.08033 19.536859,43.61719 43.617189,43.61719 24.08033,0 43.61719,-19.53686 43.61719,-43.61719 h 58.15625 c 0,24.08033 19.53686,43.61719 43.61719,43.61719 24.08032,0 43.61718,-19.53686 43.61718,-43.61719 h 21.80858 c 3.99826,0 7.26954,-3.27128 7.26954,-7.26953 v -14.53907 c 0,-3.99824 -3.27128,-7.26952 -7.26954,-7.26952 z M 142.30469,309.5039 c -12.04015,0 -21.8086,-9.76843 -21.8086,-21.80859 0,-12.04015 9.76845,-21.8086 21.8086,-21.8086 12.04016,0 21.80859,9.76845 21.80859,21.8086 0,12.04016 -9.76843,21.80859 -21.80859,21.80859 z m 145.39063,0 c -12.04017,0 -21.80861,-9.76843 -21.80861,-21.80859 0,-12.04015 9.76844,-21.8086 21.80861,-21.8086 12.04014,0 21.80859,9.76845 21.80859,21.8086 0,12.04016 -9.76845,21.80859 -21.80859,21.80859 z M 324.04296,215 h -65.42578 v -50.88672 h 20.03665 l 45.38913,45.38913 z"
   id="path1"
   style="fill:#ffffff;stroke-width:0.454345" />
  
</svg>
